<svg width="42" height="40" viewBox="0 0 42 40" fill="none" xmlns="http://www.w3.org/2000/svg">
<path opacity="0.4" fill-rule="evenodd" clip-rule="evenodd" d="M20.9861 0C9.9187 9.65645e-07 0.946776 8.95431 0.946777 20C0.946778 31.0457 9.9187 40 20.9861 40C32.0535 40 41.0255 31.0457 41.0255 20C41.0255 8.9543 32.0535 -9.65645e-07 20.9861 0ZM25.5615 13.7234C26.1408 13.1575 26.1408 12.2402 25.5615 11.6744C24.9823 11.1085 24.0432 11.1085 23.464 11.6744L15.1582 19.788C14.579 20.3538 14.579 21.2712 15.1582 21.837L23.464 29.9506C24.0432 30.5165 24.9823 30.5165 25.5615 29.9506C26.1408 29.3848 26.1408 28.4675 25.5615 27.9016L18.3045 20.8125L25.5615 13.7234Z" fill="#B0A6BD"/>
<path opacity="0.8" d="M25.5616 11.6744C26.1408 12.2402 26.1408 13.1575 25.5616 13.7234L18.3046 20.8125L25.5616 27.9016C26.1408 28.4675 26.1408 29.3848 25.5616 29.9506C24.9824 30.5165 24.0433 30.5165 23.4641 29.9506L15.1583 21.837C14.5791 21.2712 14.5791 20.3538 15.1583 19.788L23.4641 11.6744C24.0433 11.1085 24.9824 11.1085 25.5616 11.6744Z" fill="white"/>
</svg>
