<svg width="42" height="40" viewBox="0 0 42 40" fill="none" xmlns="http://www.w3.org/2000/svg">
<path opacity="0.4" fill-rule="evenodd" clip-rule="evenodd" d="M21.0156 40C32.083 40 41.0549 31.0457 41.0549 20C41.0549 8.95431 32.083 -7.8281e-07 21.0156 2.06624e-06C9.94817 1.1006e-06 0.976249 8.95431 0.976248 20C0.97625 31.0457 9.94817 40 21.0156 40ZM16.4402 26.2766C15.861 26.8425 15.861 27.7598 16.4402 28.3256C17.0194 28.8915 17.9585 28.8915 18.5377 28.3256L26.8435 20.212C27.4227 19.6462 27.4227 18.7288 26.8435 18.163L18.5377 10.0494C17.9585 9.48355 17.0194 9.48355 16.4402 10.0494C15.861 10.6152 15.861 11.5325 16.4402 12.0984L23.6972 19.1875L16.4402 26.2766Z" fill="#B0A6BD"/>
<path opacity="0.8" d="M16.4401 28.3256C15.8609 27.7598 15.8609 26.8425 16.4401 26.2766L23.6971 19.1875L16.4401 12.0984C15.8609 11.5325 15.8609 10.6152 16.4401 10.0494C17.0193 9.48354 17.9584 9.48354 18.5376 10.0494L26.8434 18.163C27.4226 18.7288 27.4226 19.6462 26.8434 20.212L18.5376 28.3256C17.9584 28.8915 17.0193 28.8915 16.4401 28.3256Z" fill="white"/>
</svg>
