<svg width="28" height="28" viewBox="0 0 28 28" fill="none" xmlns="http://www.w3.org/2000/svg">
<path d="M13.4528 0.398258C13.6421 -0.132753 14.3579 -0.132753 14.5472 0.398259L17.7585 9.4089C17.8406 9.63927 18.046 9.79584 18.2802 9.80657L27.4404 10.2265C27.9802 10.2513 28.2014 10.9656 27.7785 11.3185L20.6031 17.3074C20.4196 17.4605 20.3412 17.7138 20.4038 17.9508L22.8538 27.221C22.9982 27.7673 22.419 28.2088 21.9684 27.8959L14.3224 22.5866C14.1269 22.4508 13.8731 22.4508 13.6776 22.5866L6.03158 27.8959C5.58099 28.2088 5.00183 27.7673 5.14621 27.221L7.59619 17.9508C7.65882 17.7138 7.58037 17.4605 7.39692 17.3074L0.221459 11.3185C-0.201402 10.9656 0.0198181 10.2513 0.559641 10.2265L9.7198 9.80657C9.95399 9.79584 10.1594 9.63927 10.2415 9.4089L13.4528 0.398258Z" fill="#DFE1E3"/>
</svg>
