<svg width="30" height="30" viewBox="0 0 30 30" fill="none" xmlns="http://www.w3.org/2000/svg">
<g clip-path="url(#clip0_754_5262)">
<path fill-rule="evenodd" clip-rule="evenodd" d="M7.83636 1.0173C10.1378 0.760156 12.5399 0.535156 14.9999 0.535156C17.4599 0.535156 19.8621 0.760156 22.1635 1.0173C23.9127 1.21787 25.5422 2.00595 26.7854 3.2527C28.0286 4.49944 28.8121 6.13109 29.0078 7.88087C29.2542 10.1716 29.4642 12.5566 29.4642 14.9994C29.4642 17.4423 29.2542 19.8273 29.0078 22.118C28.8121 23.8678 28.0286 25.4994 26.7854 26.7462C25.5422 27.9929 23.9127 28.781 22.1635 28.9816C19.8621 29.2387 17.4599 29.4637 14.9999 29.4637C12.5399 29.4637 10.1378 29.2387 7.83636 28.9816C6.08713 28.781 4.4577 27.9929 3.21446 26.7462C1.97122 25.4994 1.18772 23.8678 0.992073 22.118C0.745645 19.8273 0.535645 17.4423 0.535645 14.9994C0.535645 12.5566 0.745645 10.1716 0.992073 7.88087C1.18772 6.13109 1.97122 4.49944 3.21446 3.2527C4.4577 2.00595 6.08713 1.21787 7.83636 1.0173ZM17.8542 6.17516C17.7802 5.85453 17.5908 5.57235 17.3221 5.38247C17.0533 5.19258 16.7241 5.10827 16.3972 5.14563C16.0702 5.18298 15.7685 5.33939 15.5495 5.585C15.3306 5.83061 15.2097 6.14825 15.2099 6.4773V18.8566C15.2099 19.5143 15.0149 20.1573 14.6494 20.7043C14.284 21.2512 13.7646 21.6774 13.1569 21.9291C12.5492 22.1809 11.8805 22.2467 11.2354 22.1184C10.5903 21.9901 9.99769 21.6733 9.53258 21.2082C9.06747 20.7431 8.75073 20.1505 8.6224 19.5054C8.49408 18.8603 8.55994 18.1916 8.81166 17.5839C9.06337 16.9762 9.48964 16.4568 10.0365 16.0914C10.5835 15.7259 11.2265 15.5309 11.8842 15.5309C12.2394 15.5309 12.5801 15.3898 12.8312 15.1386C13.0824 14.8874 13.2235 14.5468 13.2235 14.1916C13.2235 13.8364 13.0824 13.4957 12.8312 13.2446C12.5801 12.9934 12.2394 12.8523 11.8842 12.8523C10.6967 12.8523 9.53581 13.2044 8.54841 13.8642C7.56101 14.524 6.79143 15.4617 6.33698 16.5588C5.88253 17.656 5.76362 18.8632 5.9953 20.028C6.22698 21.1927 6.79883 22.2625 7.63854 23.1023C8.47826 23.942 9.54812 24.5138 10.7128 24.7455C11.8776 24.9772 13.0848 24.8583 14.182 24.4038C15.2791 23.9494 16.2168 23.1798 16.8766 22.1924C17.5364 21.205 17.8885 20.0441 17.8885 18.8566V11.378C19.1742 12.4709 20.8328 13.0709 22.7785 13.0709C23.1337 13.0709 23.4744 12.9298 23.7255 12.6786C23.9767 12.4274 24.1178 12.0868 24.1178 11.7316C24.1178 11.3764 23.9767 11.0357 23.7255 10.7846C23.4744 10.5334 23.1337 10.3923 22.7785 10.3923C21.3642 10.3923 20.3142 9.95516 19.5406 9.2673C18.7521 8.56444 18.1671 7.51873 17.8542 6.17516Z" fill="white"/>
</g>
<defs>
<clipPath id="clip0_754_5262">
<rect width="30" height="30" fill="white"/>
</clipPath>
</defs>
</svg>
