<svg width="38" height="38" viewBox="0 0 38 38" fill="none" xmlns="http://www.w3.org/2000/svg">
<rect width="38" height="38" rx="19" fill="#FF04DE" fill-opacity="0.05"/>
<path fill-rule="evenodd" clip-rule="evenodd" d="M13.9173 11.5369C13.7458 10.6448 12.9652 10 12.0567 10H10.4708C9.94759 10 9.52344 10.4242 9.52344 10.9474C9.52344 11.4706 9.94759 11.8947 10.4708 11.8947L12.0567 11.8947L13.834 21.1367C14.1771 22.9209 15.7383 24.2105 17.5553 24.2105H23.4378C25.1592 24.2105 26.6644 23.0502 27.1025 21.3854L28.2878 16.8812C28.762 15.0791 27.4028 13.3158 25.5393 13.3158H14.2594L13.9173 11.5369ZM14.6238 15.2105L15.6946 20.7789C15.8662 21.671 16.6468 22.3158 17.5553 22.3158H23.4378C24.2985 22.3158 25.0511 21.7356 25.2701 20.9033L26.4554 16.399C26.6135 15.7983 26.1604 15.2105 25.5393 15.2105H14.6238Z" fill="#FF04DE"/>
<path d="M15.9181 28C15.1333 28 14.4971 27.3638 14.4971 26.5789C14.4971 25.7941 15.1333 25.1579 15.9181 25.1579C16.703 25.1579 17.3392 25.7941 17.3392 26.5789C17.3392 27.3638 16.703 28 15.9181 28Z" fill="#FF04DE"/>
<path d="M24.2076 28C23.4228 28 22.7866 27.3638 22.7866 26.5789C22.7866 25.7941 23.4228 25.1579 24.2076 25.1579C24.9924 25.1579 25.6287 25.7941 25.6287 26.5789C25.6287 27.3638 24.9924 28 24.2076 28Z" fill="#FF04DE"/>
</svg>
