<svg width="38" height="38" viewBox="0 0 38 38" fill="none" xmlns="http://www.w3.org/2000/svg">
<path d="M0 19C0 8.50659 8.50659 0 19 0C29.4934 0 38 8.50659 38 19C38 29.4934 29.4934 38 19 38C8.50659 38 0 29.4934 0 19Z" fill="#FFCC00" fill-opacity="0.05"/>
<ellipse cx="18.9973" cy="23.4998" rx="5.99924" ry="2.49979" stroke="#FFCC00" stroke-width="1.79981" stroke-linejoin="round"/>
<ellipse cx="18.9977" cy="14.9997" rx="2.99962" ry="2.99975" stroke="#FFCC00" stroke-width="1.79981" stroke-linejoin="round"/>
<path d="M13.7451 20.1064C12.6019 20.6667 11.7451 21.4065 11.3125 22.248C11.127 22.3019 10.9544 22.3599 10.7969 22.4229C10.4076 22.5786 10.1516 22.742 10.0088 22.877C9.94552 22.9368 9.91689 22.979 9.9043 23.002C9.91687 23.0248 9.94576 23.0663 10.0088 23.126C10.1516 23.261 10.4074 23.4243 10.7969 23.5801C10.8631 23.6066 10.9326 23.6303 11.0039 23.6553C11.0501 24.4201 11.4354 25.135 12.0781 25.7568C11.3548 25.6463 10.6917 25.4765 10.1279 25.251C9.61303 25.045 9.13555 24.7769 8.77246 24.4336C8.45319 24.1316 8.17656 23.7238 8.1123 23.2227L8.09766 23.002L8.1123 22.7812C8.17655 22.2799 8.45305 21.8714 8.77246 21.5693C9.13558 21.226 9.61303 20.9579 10.1279 20.752C11.1035 20.3618 12.3752 20.1319 13.7451 20.1064Z" fill="#FFCC00"/>
<path d="M24.2549 20.1064C25.625 20.1319 26.8975 20.3617 27.873 20.752C28.388 20.958 28.8655 21.226 29.2285 21.5693C29.5935 21.9146 29.9023 22.3988 29.9023 23.002C29.9023 23.6048 29.5933 24.0884 29.2285 24.4336C28.8655 24.7769 28.3878 25.045 27.873 25.251C27.3094 25.4764 26.6461 25.6462 25.9229 25.7568C26.5656 25.135 26.9499 24.4201 26.9961 23.6553C27.0676 23.6302 27.1377 23.6066 27.2041 23.5801C27.5935 23.4243 27.8485 23.261 27.9912 23.126C28.0538 23.0667 28.082 23.025 28.0947 23.002C28.082 22.9789 28.0542 22.9365 27.9912 22.877C27.8484 22.742 27.5934 22.5786 27.2041 22.4229C27.0464 22.3598 26.8732 22.3029 26.6875 22.249C26.2549 21.4072 25.3987 20.6668 24.2549 20.1064Z" fill="#FFCC00"/>
<path d="M24 13.1025C25.6012 13.1028 26.8994 14.4017 26.8994 16.0029C26.8991 17.6039 25.601 18.902 24 18.9023C23.4741 18.9023 22.982 18.7594 22.5566 18.5146C22.9817 18.0844 23.3288 17.5777 23.5762 17.0166C23.7066 17.0711 23.8498 17.1025 24 17.1025C24.6069 17.1022 25.0993 16.6099 25.0996 16.0029C25.0996 15.3956 24.6071 14.9036 24 14.9033H23.9971C23.9849 14.276 23.8586 13.6773 23.6357 13.127C23.7551 13.112 23.8766 13.1025 24 13.1025Z" fill="#FFCC00"/>
<path d="M13.998 13.1025C14.1212 13.1026 14.2422 13.112 14.3613 13.127C14.1386 13.6772 14.0121 14.2761 14 14.9033H13.998C13.3907 14.9033 12.8984 15.3954 12.8984 16.0029C12.8988 16.6101 13.3909 17.1025 13.998 17.1025C14.148 17.1024 14.2906 17.071 14.4209 17.0166C14.6682 17.5776 15.0155 18.0844 15.4404 18.5146C15.0153 18.7593 14.5237 18.9022 13.998 18.9023C12.3968 18.9023 11.098 17.6041 11.0977 16.0029C11.0977 14.4015 12.3966 13.1025 13.998 13.1025Z" fill="#FFCC00"/>
</svg>
