<svg width="38" height="38" viewBox="0 0 38 38" fill="none" xmlns="http://www.w3.org/2000/svg">
<path d="M0 19C0 8.50659 8.50659 0 19 0C29.4934 0 38 8.50659 38 19C38 29.4934 29.4934 38 19 38C8.50659 38 0 29.4934 0 19Z" fill="#FF8102" fill-opacity="0.05"/>
<path d="M15.0101 13.9985L23.0037 14.0076M15.005 17.9949L22.9988 18.0049M15.0009 21.9911L19.9967 21.9977M10.999 25.9841L11.0153 11.9966C11.0155 11.7341 11.0675 11.4743 11.1681 11.2319C11.2688 10.9895 11.4162 10.7693 11.602 10.5839C11.7878 10.3985 12.0083 10.2515 12.2509 10.1513C12.4935 10.0511 12.7534 9.9997 13.0159 10L25.006 10.0151C25.5359 10.0158 26.0439 10.227 26.4181 10.6022C26.7924 10.9774 27.0023 11.4859 27.0016 12.0159L26.9853 26.0034C26.9851 26.2659 26.9332 26.5257 26.8325 26.7681C26.7318 27.0105 26.5844 27.2307 26.3986 27.4161C26.2128 27.6015 25.9924 27.7485 25.7498 27.8487C25.5072 27.9489 25.2472 28.0003 24.9847 28L12.9947 27.9849C12.4647 27.9842 11.9567 27.773 11.5825 27.3978C11.2082 27.0226 10.9984 26.5141 10.999 25.9841Z" stroke="#FF8102" stroke-width="1.41818" stroke-linecap="round"/>
</svg>
