<svg width="38" height="38" viewBox="0 0 38 38" fill="none" xmlns="http://www.w3.org/2000/svg">
<rect width="38" height="38" rx="19" fill="#04D178" fill-opacity="0.05"/>
<path d="M11.8245 24.121L18.3197 27.802C18.5508 27.934 18.7777 28 19.0004 28C19.2231 28 19.4528 27.934 19.6895 27.802L26.1767 24.121C26.5563 23.9009 26.8437 23.6519 27.0389 23.374C27.2342 23.0963 27.3319 22.6631 27.3319 22.0744V15.5379C27.3319 15.1088 27.2508 14.7539 27.0885 14.4734C26.9261 14.1926 26.6717 13.9504 26.3253 13.7469L20.4815 10.4291C19.9866 10.143 19.4943 10 19.0047 10C18.5151 10 18.0199 10.143 17.519 10.4291L11.6841 13.7469C11.3321 13.9506 11.0748 14.1928 10.9123 14.4734C10.7501 14.7539 10.6689 15.1088 10.6689 15.5379V22.0744C10.6689 22.6631 10.7679 23.0963 10.9659 23.374C11.1639 23.6517 11.4501 23.9007 11.8245 24.121ZM12.5672 23.0316C12.3248 22.8941 12.1569 22.7496 12.0636 22.5982C11.97 22.447 11.9232 22.2586 11.9232 22.033V15.8018L18.3528 19.4745V26.3246L12.5672 23.0316ZM25.4419 23.0316L19.6484 26.3246V19.4745L26.0769 15.8018V22.033C26.0769 22.2586 26.0301 22.447 25.9365 22.5982C25.8429 22.7494 25.6782 22.894 25.4423 23.032M19.0051 18.3196L12.6331 14.7124L15.1833 13.2519L21.5546 16.8749L19.0051 18.3196ZM22.8837 16.1243L16.4873 12.5088L18.072 11.6092C18.6993 11.2516 19.3211 11.2516 19.9371 11.6092L25.376 14.7124L22.8837 16.1243Z" fill="#00E096"/>
</svg>
